<?xml version="1.0" encoding="UTF-8" standalone="no"?> <!-- Created with Vectornator for iOS (http://vectornator.io/) --><!DOCTYPE svg PUBLIC "-//W3C//DTD SVG 1.1//EN" "http://www.w3.org/Graphics/SVG/1.1/DTD/svg11.dtd">
<svg height="100%" style="fill-rule:evenodd;clip-rule:evenodd;stroke-linecap:round;stroke-linejoin:round;" xmlns:xlink="http://www.w3.org/1999/xlink" xmlns="http://www.w3.org/2000/svg" xml:space="preserve" width="100%" xmlns:vectornator="http://vectornator.io" version="1.1" viewBox="0 0 5700 4000">
<metadata>
<vectornator:setting key="DisplayWhiteBackground" value="1"/>
<vectornator:setting key="RulersVisible" value="1"/>
<vectornator:setting key="SnapToEdges" value="0"/>
<vectornator:setting key="Units" value="Pixels"/>
<vectornator:setting key="DynamicGuides" value="1"/>
<vectornator:setting key="SnapToPoints" value="0"/>
<vectornator:setting key="SnapToGrid" value="1"/>
<vectornator:setting key="SnapToGuides" value="1"/>
<vectornator:setting key="ShowGrid" value="1"/>
<vectornator:setting key="GridSpacing" value="100"/>
</metadata>
<defs/>
<g id="Layer 1" vectornator:layerName="Layer 1" visibility="hidden">
<path stroke="#000000" stroke-opacity="0" stroke-width="0.1" d="M200+200L400+200L400+3800L200+3800L200+200Z" fill="#000000" stroke-linecap="butt" opacity="1" stroke-linejoin="miter"/>
<path stroke="#000000" stroke-opacity="0" stroke-width="0.1" d="M1200+200L1400+200L400+3800L200+3800L1200+200Z" fill="#000000" stroke-linecap="butt" opacity="1" stroke-linejoin="miter"/>
<path stroke="#000000" stroke-opacity="0" stroke-width="0.1" d="M1500+600L1700+600L1551.6+1127.65L800+3800L600+3800L1500+600Z" fill="#000000" stroke-linecap="butt" opacity="1" stroke-linejoin="miter"/>
<path stroke="#000000" stroke-opacity="0" stroke-width="0.1" d="M2600+600L2800+600L2800+3800L2600+3800L2600+600Z" fill="#000000" stroke-linecap="butt" opacity="1" stroke-linejoin="miter"/>
<path stroke="#000000" stroke-opacity="0" stroke-width="0.1" d="M9000+600L9200+600L9200+3800L9000+3800L9000+600Z" fill="#000000" stroke-linecap="butt" opacity="1" stroke-linejoin="miter"/>
<path stroke="#000000" stroke-opacity="0" stroke-width="0.1" d="M8600+600L8800+600L8800+3800L8600+3800L8600+600Z" fill="#000000" stroke-linecap="butt" opacity="1" stroke-linejoin="miter"/>
<path stroke="#000000" stroke-opacity="0" stroke-width="0.1" d="M7400+600L7600+600L7600+3800L7400+3800L7400+600Z" fill="#000000" stroke-linecap="butt" opacity="1" stroke-linejoin="miter"/>
<path stroke="#000000" stroke-opacity="0" stroke-width="0.1" d="M7400+600L7600+600L8800+3800L8600+3800L7400+600Z" fill="#000000" stroke-linecap="butt" opacity="1" stroke-linejoin="miter"/>
<path stroke="#000000" stroke-opacity="0" stroke-width="0.1" d="M1700+600L1500+600L1648.4+1127.65L2140.97+2879.01L2400+3800L2600+3800L1700+600Z" fill="#000000" stroke-linecap="butt" opacity="1" stroke-linejoin="miter"/>
<path stroke="#000000" stroke-opacity="0" stroke-width="0.1" d="M6300+600L6500+600L6351.6+1127.65L5600+3800L5400+3800L6300+600Z" fill="#000000" stroke-linecap="butt" opacity="1" stroke-linejoin="miter"/>
<path stroke="#000000" stroke-opacity="0" stroke-width="0.1" d="M6500+600L6300+600L6448.4+1127.65L6940.97+2879.01L7200+3800L7400+3800L6500+600Z" fill="#000000" stroke-linecap="butt" opacity="1" stroke-linejoin="miter"/>
<path stroke="#000000" stroke-opacity="0" stroke-width="0.1" d="M1100+2300L2100+2300L2100+2500L1100+2500L1100+2300Z" fill="#000000" stroke-linecap="butt" opacity="1" stroke-linejoin="miter"/>
<path stroke="#000000" stroke-opacity="0" stroke-width="0.1" d="M5900+2300L6900+2300L6900+2500L5900+2500L5900+2300Z" fill="#000000" stroke-linecap="butt" opacity="1" stroke-linejoin="miter"/>
<path stroke="#000000" stroke-opacity="0" stroke-width="0.1" d="M2700+2300L3400+2300L3400+2500L2700+2500L2700+2300Z" fill="#000000" stroke-linecap="butt" opacity="1" stroke-linejoin="miter"/>
<path stroke="#000000" stroke-opacity="0" stroke-width="0.1" d="M3200+2500L3400+2500L4000+3800L3800+3800L3200+2500Z" fill="#000000" stroke-linecap="butt" opacity="1" stroke-linejoin="miter"/>
<path stroke="#000000" stroke-width="200" d="M2800+700C3700+700+3900+900+3900+1500C3900+2200+3700+2400+3400+2400" fill="none" stroke-linecap="butt" opacity="1" stroke-linejoin="miter"/>
<path stroke="#000000" stroke-width="200" d="M5500+700C4400+700+4300+900+4300+1500C4300+2000+4400+2200+4900+2200" fill="none" stroke-linecap="butt" opacity="1" stroke-linejoin="miter"/>
<path stroke="#000000" stroke-width="200" d="M4200+3700C5300+3700+5400+3500+5400+2900C5400+2400+5100+2200+4800+2200" fill="none" stroke-linecap="butt" opacity="1" stroke-linejoin="miter"/>
<path stroke="#000000" stroke-opacity="0" stroke-width="0.1" d="M700+3600L4200+3600L4200+3800L700+3800L700+3600Z" fill="#000000" stroke-linecap="butt" opacity="1" stroke-linejoin="miter"/>
<path stroke="#000000" stroke-opacity="0" stroke-width="0.1" d="M5500+3600L9200+3600L9200+3800L5500+3800L5500+3600Z" fill="#000000" stroke-linecap="butt" opacity="1" stroke-linejoin="miter"/>
<path stroke="#000000" stroke-opacity="0" stroke-width="0.1" d="M1200+200L4100+200L4100+400L1200+400L1200+200Z" fill="#000000" stroke-linecap="butt" opacity="1" stroke-linejoin="miter"/>
<path stroke="#000000" stroke-opacity="0" stroke-width="0.1" d="M7200+200L9200+200L9200+400L7200+400L7200+200Z" fill="#000000" stroke-linecap="butt" opacity="1" stroke-linejoin="miter"/>
<path stroke="#000000" stroke-opacity="0" stroke-width="0.1" d="M5700+200L7100+200L7100+400L5700+400L5700+200Z" fill="#000000" stroke-linecap="butt" opacity="1" stroke-linejoin="miter"/>
<path stroke="#000000" stroke-opacity="0" stroke-width="0.1" d="M4200+200L5600+200L5600+400L4200+400L4200+200Z" fill="#000000" stroke-linecap="butt" opacity="1" stroke-linejoin="miter"/>
</g>
<g id="Layer 4" vectornator:layerName="Layer 4" visibility="hidden">
<path stroke="#000000" stroke-width="5" d="M600+500L800+500L800+4100L600+4100L600+500Z" fill="#8f3535" stroke-linecap="butt" fill-opacity="0" opacity="1" stroke-linejoin="miter"/>
<path stroke="#000000" stroke-width="5" d="M1500+900L1700+900L1551.6+1427.65L800+4100L600+4100L1500+900Z" fill="#8f3535" stroke-linecap="butt" fill-opacity="0" opacity="1" stroke-linejoin="miter"/>
<path stroke="#000000" stroke-width="5" d="M1612.5+500L1500+900L1700+900L1812.5+500L1612.5+500Z" fill="#8f3535" stroke-linecap="butt" fill-opacity="0" opacity="1" stroke-linejoin="miter"/>
<path stroke="#000000" stroke-width="5" d="M2600+900L2800+900L2800+4100L2600+4100L2600+900Z" fill="#8f3535" stroke-linecap="butt" fill-opacity="0" opacity="1" stroke-linejoin="miter"/>
<path stroke="#000000" stroke-width="5" d="M1700+900L1500+900L1648.4+1427.65L2140.97+3179.01L2400+4100L2600+4100L1700+900Z" fill="#8f3535" stroke-linecap="butt" fill-opacity="0" opacity="1" stroke-linejoin="miter"/>
<path stroke="#000000" stroke-width="5" d="M2700+2600L3400+2600L3400+2800L2700+2800L2700+2600Z" fill="#8f3535" stroke-linecap="butt" fill-opacity="0" opacity="1" stroke-linejoin="miter"/>
<path stroke="#000000" stroke-width="5" d="M3200+2800L3400+2800L4000+4100L3800+4100L3200+2800Z" fill="#8f3535" stroke-linecap="butt" fill-opacity="0" opacity="1" stroke-linejoin="miter"/>
<path stroke="#000000" stroke-width="5" d="M2800+900L2800+1100C3237.85+1100+3489.24+1148.64+3626.53+1254.25C3749.95+1349.19+3800+1506.51+3800+1800C3800+2120.22+3757.09+2334.73+3678.12+2458.81C3615.07+2557.89+3528.65+2600+3400+2600L3400+2800C3492.45+2800+3575.09+2783.48+3648.5+2747.72C3728.18+2708.9+3794.55+2648.42+3846.88+2566.19C3950.2+2403.82+4000+2154.78+4000+1800C4000+1632.48+3984.93+1501.44+3949.97+1391.56C3910.53+1267.61+3845+1170+3748.47+1095.75C3653.55+1022.73+3530.02+973.301+3370.56+942.438C3220.72+913.435+3035.26+900+2800+900Z" fill="#8f3535" stroke-linecap="butt" fill-opacity="0" opacity="1" stroke-linejoin="miter"/>
<path stroke="#000000" stroke-width="5" d="M4800+900L5000+900L4851.6+1427.65L4100+4100L3900+4100L4800+900Z" fill="#8f3535" stroke-linecap="butt" fill-opacity="0" opacity="1" stroke-linejoin="miter"/>
<path stroke="#000000" stroke-width="5" d="M5000+900L4800+900L4948.4+1427.65L5440.97+3179.01L5700+4100L5900+4100L5000+900Z" fill="#8f3535" stroke-linecap="butt" fill-opacity="0" opacity="1" stroke-linejoin="miter"/>
<path stroke="#000000" stroke-width="5" d="M2012.5+500L1956.25+700L4543.75+700L4487.5+500L2300+500L2012.5+500Z" fill="#8f3535" stroke-linecap="butt" fill-opacity="0" opacity="1" stroke-linejoin="miter"/>
<path stroke="#000000" stroke-width="5" d="M4687.5+500L4800+900L5000+900L4887.5+500L4687.5+500Z" fill="#8f3535" stroke-linecap="butt" fill-opacity="0" opacity="1" stroke-linejoin="miter"/>
<path stroke="#000000" stroke-width="5" d="M1056.25+3900L1000+4100L5500+4100L5443.75+3900L1056.25+3900Z" fill="#8f3535" stroke-linecap="round" fill-opacity="0" opacity="1" stroke-linejoin="round"/>
<path stroke="#000000" stroke-width="5" d="M600+500L800+500L800+4100L600+4100L600+500Z" fill="#8f3535" stroke-linecap="butt" fill-opacity="0" opacity="1" stroke-linejoin="miter"/>
<path stroke="#000000" stroke-width="5" d="M1500+900L1700+900L1551.6+1427.65L800+4100L600+4100L1500+900Z" fill="#8f3535" stroke-linecap="butt" fill-opacity="0" opacity="1" stroke-linejoin="miter"/>
<path stroke="#000000" stroke-width="5" d="M1612.5+500L1500+900L1700+900L1812.5+500L1612.5+500Z" fill="#8f3535" stroke-linecap="butt" fill-opacity="0" opacity="1" stroke-linejoin="miter"/>
<path stroke="#000000" stroke-width="5" d="M2600+900L2800+900L2800+4100L2600+4100L2600+900Z" fill="#8f3535" stroke-linecap="butt" fill-opacity="0" opacity="1" stroke-linejoin="miter"/>
<path stroke="#000000" stroke-width="5" d="M1700+900L1500+900L1648.4+1427.65L2140.97+3179.01L2400+4100L2600+4100L1700+900Z" fill="#8f3535" stroke-linecap="butt" fill-opacity="0" opacity="1" stroke-linejoin="miter"/>
<path stroke="#000000" stroke-width="5" d="M2700+2600L3400+2600L3400+2800L2700+2800L2700+2600Z" fill="#8f3535" stroke-linecap="butt" fill-opacity="0" opacity="1" stroke-linejoin="miter"/>
<path stroke="#000000" stroke-width="5" d="M3200+2800L3400+2800L4000+4100L3800+4100L3200+2800Z" fill="#8f3535" stroke-linecap="butt" fill-opacity="0" opacity="1" stroke-linejoin="miter"/>
<path stroke="#000000" stroke-width="5" d="M2800+900L2800+1100C3237.85+1100+3489.24+1148.64+3626.53+1254.25C3749.95+1349.19+3800+1506.51+3800+1800C3800+2120.22+3757.09+2334.73+3678.12+2458.81C3615.07+2557.89+3528.65+2600+3400+2600L3400+2800C3492.45+2800+3575.09+2783.48+3648.5+2747.72C3728.18+2708.9+3794.55+2648.42+3846.88+2566.19C3950.2+2403.82+4000+2154.78+4000+1800C4000+1632.48+3984.93+1501.44+3949.97+1391.56C3910.53+1267.61+3845+1170+3748.47+1095.75C3653.55+1022.73+3530.02+973.301+3370.56+942.438C3220.72+913.435+3035.26+900+2800+900Z" fill="#8f3535" stroke-linecap="butt" fill-opacity="0" opacity="1" stroke-linejoin="miter"/>
<path stroke="#000000" stroke-width="5" d="M4800+900L5000+900L4851.6+1427.65L4100+4100L3900+4100L4800+900Z" fill="#8f3535" stroke-linecap="butt" fill-opacity="0" opacity="1" stroke-linejoin="miter"/>
<path stroke="#000000" stroke-width="5" d="M5000+900L4800+900L4948.4+1427.65L5440.97+3179.01L5700+4100L5900+4100L5000+900Z" fill="#8f3535" stroke-linecap="butt" fill-opacity="0" opacity="1" stroke-linejoin="miter"/>
<path stroke="#000000" stroke-width="5" d="M2012.5+500L1956.25+700L4543.75+700L4487.5+500L2300+500L2012.5+500Z" fill="#8f3535" stroke-linecap="butt" fill-opacity="0" opacity="1" stroke-linejoin="miter"/>
<path stroke="#000000" stroke-width="5" d="M4687.5+500L4800+900L5000+900L4887.5+500L4687.5+500Z" fill="#8f3535" stroke-linecap="butt" fill-opacity="0" opacity="1" stroke-linejoin="miter"/>
<path stroke="#000000" stroke-width="5" d="M1056.25+3900L1000+4100L5500+4100L5443.75+3900L1056.25+3900Z" fill="#8f3535" stroke-linecap="round" fill-opacity="0" opacity="1" stroke-linejoin="round"/>
</g>
<g id="Layer 2" vectornator:layerName="Layer 2">
<path stroke="#000000" stroke-opacity="0" stroke-width="0.1" d="M200+200L200+3800L400+3800L1151.59+1127.66L1200+955.562L1248.41+1127.66L1740.97+2879L1943.75+3600L656.25+3600L600+3800L5100+3800L5043.75+3600L3756.25+3600L4451.59+1127.66L4500+955.562L4548.41+1127.66L5040.97+2879L5300+3800L5500+3800L4600+600L4487.5+200L4287.5+200L4400+600L3556.25+3600L3507.69+3600L3000+2500C3011.56+2500+3022.97+2499.74+3034.22+2499.22C3112.97+2495.57+3184.27+2479.01+3248.5+2447.72C3328.18+2408.9+3394.55+2348.42+3446.88+2266.19C3550.2+2103.82+3600+1854.78+3600+1500C3600+1479.06+3599.76+1458.7+3599.28+1438.88C3595.92+1300.07+3580.56+1187.71+3549.97+1091.56C3510.53+967.611+3445+870.005+3348.47+795.75C3253.55+722.732+3130.02+673.301+2970.56+642.438C2820.72+613.435+2635.26+600+2400+600L2200+600L2200+3600L2143.75+3600L1300+600L1412.5+200L1212.5+200L1100+600L400+3088.88L400+200L200+200ZM1612.5+200L1556.25+400L4143.75+400L4087.5+200L1900+200L1612.5+200ZM2400+800C2837.85+800+3089.24+848.643+3226.53+954.25C3349.95+1049.19+3400+1206.51+3400+1500C3400+1820.22+3357.09+2034.73+3278.12+2158.81C3215.07+2257.89+3128.65+2300+3000+2300L2400+2300L2400+800ZM2400+2500L2800+2500L3307.69+3600L2400+3600L2400+2500Z" fill="#000000" stroke-linecap="round" opacity="1" stroke-linejoin="round"/>
</g>
</svg>
